<?xml version="1.0" encoding="utf-8"?><!-- Generator: Adobe Illustrator 21.1.0, SVG Export Plug-In . SVG Version: 6.00 Build 0)  --><svg xmlns="http://www.w3.org/2000/svg" xmlns:xlink="http://www.w3.org/1999/xlink" viewBox="0 0 128 128" width="64px" height="64px"><g><path d="M46,124c0,1.7,1.3,3,3,3h40c1.7,0,3-1.3,3-3s-1.3-3-3-3H49C47.3,121,46,122.3,46,124z"/><path d="M21.8,110.9L21,123.8c-0.1,1.1,0.5,2.2,1.5,2.8c0.5,0.3,1,0.4,1.5,0.4c0.6,0,1.2-0.2,1.7-0.5l10.8-7.1c5.5-3.7,10.2-8.6,13.5-14.4l30.3-52.4c0.8-1.4,0.3-3.3-1.1-4.1c-1.4-0.8-3.3-0.3-4.1,1.1L44.8,102c-2.9,4.9-6.9,9.2-11.7,12.4l-5.8,3.8l0.4-6.9c0.3-5.7,2-11.3,4.9-16.3l30.3-52.4c0.8-1.4,0.3-3.3-1.1-4.1c-1.4-0.8-3.3-0.3-4.1,1.1L27.5,92C24.1,97.8,22.2,104.3,21.8,110.9z"/><path d="M86.5,41.7l3.7-6.5c1.7-3,2.2-6.5,1.3-9.9c-0.9-3.4-3.1-6.2-6.1-7.9c-3-1.7-6.5-2.2-9.9-1.3c-3.4,0.9-6.2,3.1-7.9,6.1L64,28.7c-0.8,1.4-0.3,3.3,1.1,4.1l17.3,10c0.5,0.3,1,0.4,1.5,0.4c0.3,0,0.5,0,0.8-0.1C85.5,42.9,86.1,42.4,86.5,41.7z"/><circle cx="104" cy="124" r="3"/></g></svg>